<?xml version="1.0" encoding="utf-8"?>
<!-- Generator: Adobe Illustrator 21.0.0, SVG Export Plug-In . SVG Version: 6.00 Build 0)  -->
<svg version="1.1" id="Calque_1" xmlns="http://www.w3.org/2000/svg" xmlns:xlink="http://www.w3.org/1999/xlink" x="0px" y="0px"
	 viewBox="0 0 926.8 395.8" style="enable-background:new 0 0 926.8 395.8;" xml:space="preserve">
<style type="text/css">
	.st0{fill-rule:evenodd;clip-rule:evenodd;fill:#0E4F83;}
	.st1{fill-rule:evenodd;clip-rule:evenodd;fill:#EB5C30;}
</style>
<path class="st0" d="M273.5,127.7c-2.2,8.9-4.3,17-6.3,25.3c-5-1.1-9.8-2.3-14.7-3c-10-1.6-19.9-1.7-29.6,1.6
	c-3.4,1.2-6.8,3-9.6,5.4c-6.8,5.7-6.1,15.7,1.6,20.1c4.2,2.4,8.9,4.1,13.4,5.6c10.9,3.8,22.1,6.8,32.8,11.2
	c17.4,7.3,27.4,20.4,27.4,39.8c-0.1,19.6-10.1,33-27.3,41.3c-14.3,6.9-29.5,7.4-44.9,6.3c-10.6-0.8-20.8-3-30.4-7.5
	c-2.2-1-3.2-2-2.5-4.7c1.8-7.4,3.2-14.9,4.8-22.9c1.5,0.8,2.8,1.4,4.1,2c15.6,7.6,31.9,10.3,48.9,6.4c5-1.1,10-3.7,14.1-6.8
	c8.8-6.6,8.1-19.7-1.3-25.3c-6.1-3.6-13-6.2-19.7-8.7c-7.4-2.8-15.1-4.9-22.6-7.6c-13.3-4.7-23.9-12.6-28.1-26.8
	c-6.3-21.1,3.8-41.1,25.5-50.1c12.4-5.2,25.5-6.6,38.7-5.4C256.2,124.7,264.6,126.4,273.5,127.7"/>
<path class="st1" d="M158.9,291.9v25.7H101V86h57.8v25.7c-1,0.1-2.1,0.2-3.3,0.2c-8.2,0-16.4,0.2-24.5-0.1c-3.2-0.1-4.1,0.8-4.1,4
	c0.1,36.1,0.1,72.2,0.1,108.3c0,21.2,0.1,42.5-0.1,63.7c0,3,0.7,4.1,3.9,4c8.2-0.2,16.3-0.1,24.5-0.1H158.9z"/>
<path class="st0" d="M399.6,80c-2.4,7.4-4.6,14.4-6.8,21.2c-6.6-1.2-12.9-2.7-19.2-3.4c-4.8-0.5-9.8-0.3-14.5,0.3
	c-4.9,0.7-8.5,4-9.3,8.9c-1.1,6.9-1.4,14-2.1,21.5h37.9v26.6H348v121.1h-26.7V155.4h-18.3v-26.6h18.2c0.2-2.9,0.2-5.4,0.5-7.9
	c0.9-7.1,1.4-14.4,3.2-21.3c3.2-12.6,11.4-20.5,24.3-23.4C366.2,72.2,382.8,75,399.6,80"/>
<path class="st1" d="M826.5,317.8h-57.7v-25.9h6.3c7.3,0,14.7-0.1,22,0.1c2.9,0.1,3.5-0.9,3.5-3.7c-0.1-38.9-0.1-77.7-0.1-116.6
	c0-18.6-0.1-37.2,0.1-55.8c0-3.4-1-4.1-4.1-4c-9.1,0.2-18.2,0.1-27.7,0.1V86.2h57.7V317.8z"/>
<path class="st0" d="M757.4,133.6c-3.4,8.1-6.8,16.1-10.2,24.3c-3-1.1-5.8-2.2-8.6-3.3c-18.6-7.3-34.1-2.6-47,12.1
	c-3.6,4.1-6.8,8.7-9.9,13.2c-0.8,1.2-1.1,3-1.1,4.5c-0.1,29.3,0,58.6,0,87.9v3.9h-25.4V128.9h25.4v22.5c1.9-2.6,3.3-4.4,4.7-6.2
	c12.9-16.9,30-22.7,50.7-18.9C743.4,127.7,750.5,129.9,757.4,133.6"/>
<polygon class="st0" points="622,276.4 596.6,276.4 596.6,155.4 554.4,155.4 554.4,128.9 622,128.9 "/>
<rect x="412.8" y="189.7" class="st1" width="114.6" height="25.8"/>
<rect x="412.7" y="129" class="st1" width="114.7" height="25.5"/>
<rect x="412.7" y="250.6" class="st1" width="114.7" height="25.5"/>
<path class="st0" d="M609.7,74.3c9.3,0,16.7,7.5,16.7,16.8c0,9.6-7.3,17.1-16.8,17c-9,0-16.4-7.8-16.4-17.2
	C593.3,81.8,600.7,74.3,609.7,74.3"/>
</svg>
