<?xml version="1.0" encoding="utf-8"?>
<!-- Generator: Adobe Illustrator 15.0.2, SVG Export Plug-In . SVG Version: 6.00 Build 0)  -->
<!DOCTYPE svg PUBLIC "-//W3C//DTD SVG 1.1//EN" "http://www.w3.org/Graphics/SVG/1.1/DTD/svg11.dtd">
<svg version="1.1" id="Calque_1" xmlns="http://www.w3.org/2000/svg" xmlns:xlink="http://www.w3.org/1999/xlink" x="0px" y="0px"
	 width="300px" height="117.884px" viewBox="0 0 300 117.884" enable-background="new 0 0 300 117.884" xml:space="preserve">
<path fill-rule="evenodd" clip-rule="evenodd" fill="#FFFFFF" d="M81.622,33.821c-0.797,3.184-1.518,6.062-2.256,9.006
	c-1.793-0.377-3.498-0.804-5.227-1.084c-3.543-0.572-7.095-0.604-10.525,0.584c-1.222,0.423-2.436,1.082-3.431,1.905
	c-2.438,2.023-2.164,5.579,0.573,7.163c1.486,0.859,3.153,1.441,4.784,2.01c3.882,1.353,7.88,2.404,11.666,3.98
	c6.208,2.585,9.756,7.252,9.734,14.181c-0.023,6.988-3.578,11.728-9.729,14.688c-5.08,2.442-10.487,2.649-15.969,2.248
	c-3.755-0.276-7.389-1.082-10.828-2.677c-0.784-0.363-1.123-0.696-0.879-1.682c0.654-2.635,1.135-5.312,1.718-8.137
	c0.549,0.271,1.004,0.497,1.462,0.723c5.543,2.717,11.363,3.658,17.396,2.276c1.779-0.408,3.567-1.321,5.035-2.424
	c3.134-2.351,2.898-7.002-0.476-9.001c-2.186-1.295-4.625-2.199-7.019-3.104c-2.645-1.001-5.383-1.752-8.047-2.702
	c-4.739-1.687-8.496-4.476-10.005-9.54c-2.242-7.527,1.369-14.631,9.075-17.847c4.413-1.842,9.062-2.355,13.778-1.93
	C75.478,32.731,78.472,33.341,81.622,33.821"/>
<path fill-rule="evenodd" clip-rule="evenodd" fill="#E75112" d="M40.838,92.24v9.163H20.234V18.984h20.573v9.161
	c-0.365,0.021-0.761,0.06-1.159,0.061c-2.911,0.005-5.821,0.055-8.729-0.025c-1.135-0.031-1.47,0.267-1.465,1.438
	c0.042,12.851,0.023,25.702,0.023,38.554c0,7.559,0.022,15.118-0.021,22.678c-0.006,1.065,0.249,1.445,1.377,1.415
	c2.905-0.077,5.816-0.025,8.729-0.025H40.838z"/>
<path fill-rule="evenodd" clip-rule="evenodd" fill="#FFFFFF" d="M126.504,16.837c-0.849,2.644-1.645,5.113-2.426,7.548
	c-2.333-0.426-4.573-0.971-6.845-1.208c-1.705-0.179-3.477-0.116-5.176,0.118c-1.753,0.242-3.026,1.438-3.311,3.17
	c-0.406,2.473-0.502,4.997-0.746,7.649h13.496v9.478h-13.358v43.103h-9.511V43.66h-6.515v-9.48h6.479
	c0.057-1.02,0.054-1.917,0.173-2.798c0.335-2.539,0.513-5.126,1.135-7.597c1.133-4.481,4.069-7.304,8.635-8.338
	C114.625,14.065,120.524,15.059,126.504,16.837"/>
<path fill-rule="evenodd" clip-rule="evenodd" fill="#E75112" d="M278.426,101.454h-20.535V92.24h2.252
	c2.607,0,5.219-0.047,7.823,0.022c1.033,0.027,1.259-0.338,1.257-1.304c-0.03-13.834-0.021-27.668-0.021-41.503
	c0-6.614-0.031-13.229,0.032-19.843c0.011-1.194-0.36-1.453-1.475-1.429c-3.247,0.069-6.491,0.023-9.854,0.023v-9.178h20.52V101.454
	z"/>
<path fill-rule="evenodd" clip-rule="evenodd" fill="#FFFFFF" d="M253.86,35.925c-1.209,2.888-2.402,5.731-3.628,8.655
	c-1.06-0.408-2.068-0.792-3.074-1.183c-6.609-2.581-12.146-0.908-16.712,4.317c-1.29,1.475-2.416,3.097-3.533,4.709
	c-0.295,0.42-0.376,1.056-0.376,1.593c-0.022,10.432-0.018,20.863-0.018,31.293v1.394h-9.053V34.225h9.046v8.013
	c0.686-0.916,1.164-1.567,1.657-2.208c4.604-6.012,10.685-8.094,18.037-6.728C248.849,33.794,251.395,34.581,253.86,35.925"/>
<polygon fill-rule="evenodd" clip-rule="evenodd" fill="#FFFFFF" points="205.647,86.719 196.608,86.719 196.608,43.669 
	181.588,43.669 181.588,34.236 205.647,34.236 "/>
<rect x="131.208" y="55.887" fill-rule="evenodd" clip-rule="evenodd" fill="#E75112" width="40.795" height="9.181"/>
<rect x="131.188" y="34.279" fill-rule="evenodd" clip-rule="evenodd" fill="#E75112" width="40.805" height="9.085"/>
<rect x="131.186" y="77.562" fill-rule="evenodd" clip-rule="evenodd" fill="#E75112" width="40.81" height="9.083"/>
<path fill-rule="evenodd" clip-rule="evenodd" fill="#FFFFFF" d="M201.299,14.813c3.307,0.008,5.938,2.656,5.943,5.987
	c0.007,3.426-2.604,6.072-5.974,6.059c-3.202-0.013-5.828-2.769-5.819-6.108C195.458,17.465,198.077,14.806,201.299,14.813"/>
</svg>
